<mxfile host="app.diagrams.net" modified="2022-12-31T16:41:27.331Z" agent="5.0 (Macintosh; Intel Mac OS X 10_15_7) AppleWebKit/605.1.15 (KHTML, like Gecko) Version/16.1 Safari/605.1.15" version="20.7.4" etag="YwtqxWXS3PHI3eSqc5_a" type="github">
  <diagram id="4wVPdP0FL_6jUL29rx3Q" name="Seite-1">
    <mxGraphModel dx="1185" dy="586" grid="1" gridSize="10" guides="1" tooltips="1" connect="1" arrows="1" fold="1" page="1" pageScale="1" pageWidth="827" pageHeight="1169" math="0" shadow="0">
      <root>
        <mxCell id="0" />
        <mxCell id="1" parent="0" />
        <mxCell id="q4hPjwmZqmmYiwmyrzm3-3" value="" style="shape=actor;whiteSpace=wrap;html=1;" vertex="1" parent="1">
          <mxGeometry x="70" y="110" width="40" height="50" as="geometry" />
        </mxCell>
        <mxCell id="q4hPjwmZqmmYiwmyrzm3-5" value="" style="sketch=0;pointerEvents=1;shadow=0;dashed=0;html=1;strokeColor=none;fillColor=#505050;labelPosition=center;verticalLabelPosition=bottom;verticalAlign=top;outlineConnect=0;align=center;shape=mxgraph.office.concepts.book_journal;" vertex="1" parent="1">
          <mxGeometry x="20" y="110" width="41" height="49" as="geometry" />
        </mxCell>
        <mxCell id="q4hPjwmZqmmYiwmyrzm3-7" value="" style="shape=image;html=1;verticalAlign=top;verticalLabelPosition=bottom;labelBackgroundColor=#ffffff;imageAspect=0;aspect=fixed;image=https://cdn3.iconfinder.com/data/icons/essential-pack-2/48/5-Research-128.png" vertex="1" parent="1">
          <mxGeometry x="150" y="107" width="55" height="55" as="geometry" />
        </mxCell>
        <mxCell id="q4hPjwmZqmmYiwmyrzm3-8" value="" style="sketch=0;aspect=fixed;pointerEvents=1;shadow=0;dashed=0;html=1;strokeColor=none;labelPosition=center;verticalLabelPosition=bottom;verticalAlign=top;align=center;fillColor=#000000;shape=mxgraph.azure.computer" vertex="1" parent="1">
          <mxGeometry x="295" y="115" width="50.56" height="45.5" as="geometry" />
        </mxCell>
        <mxCell id="q4hPjwmZqmmYiwmyrzm3-11" value="" style="sketch=0;outlineConnect=0;fontColor=#232F3E;gradientColor=none;fillColor=#000000;strokeColor=none;dashed=0;verticalLabelPosition=bottom;verticalAlign=top;align=center;html=1;fontSize=12;fontStyle=0;aspect=fixed;pointerEvents=1;shape=mxgraph.aws4.iot_sitewise_asset_model;" vertex="1" parent="1">
          <mxGeometry x="235" y="110" width="49" height="49" as="geometry" />
        </mxCell>
        <mxCell id="q4hPjwmZqmmYiwmyrzm3-13" value="" style="sketch=0;aspect=fixed;pointerEvents=1;shadow=0;dashed=0;html=1;strokeColor=none;labelPosition=center;verticalLabelPosition=bottom;verticalAlign=top;align=center;fillColor=#000000;shape=mxgraph.mscae.general.graph;fontColor=#000000;" vertex="1" parent="1">
          <mxGeometry x="395" y="110.75" width="50" height="50" as="geometry" />
        </mxCell>
        <mxCell id="q4hPjwmZqmmYiwmyrzm3-15" value="" style="shape=image;html=1;verticalAlign=top;verticalLabelPosition=bottom;labelBackgroundColor=#ffffff;imageAspect=0;aspect=fixed;image=https://cdn2.iconfinder.com/data/icons/analytic-investment-and-balanced-scorecard/512/644_Algorithm_brain_conclusion_process_thinking-128.png;fontColor=#000000;fillColor=#000000;" vertex="1" parent="1">
          <mxGeometry x="475" y="102.75" width="60" height="60" as="geometry" />
        </mxCell>
        <mxCell id="q4hPjwmZqmmYiwmyrzm3-16" value="" style="shape=singleArrow;whiteSpace=wrap;html=1;fontColor=#000000;fillColor=#ffffff;" vertex="1" parent="1">
          <mxGeometry x="120" y="124.5" width="20" height="20" as="geometry" />
        </mxCell>
        <mxCell id="q4hPjwmZqmmYiwmyrzm3-19" value="" style="shape=singleArrow;whiteSpace=wrap;html=1;fontColor=#000000;fillColor=#ffffff;" vertex="1" parent="1">
          <mxGeometry x="205" y="124.5" width="20" height="20" as="geometry" />
        </mxCell>
        <mxCell id="q4hPjwmZqmmYiwmyrzm3-20" value="" style="shape=singleArrow;whiteSpace=wrap;html=1;fontColor=#000000;fillColor=#ffffff;" vertex="1" parent="1">
          <mxGeometry x="359" y="124.5" width="20" height="20" as="geometry" />
        </mxCell>
        <mxCell id="q4hPjwmZqmmYiwmyrzm3-21" value="" style="shape=singleArrow;whiteSpace=wrap;html=1;fontColor=#000000;fillColor=#ffffff;" vertex="1" parent="1">
          <mxGeometry x="455" y="125" width="20" height="20" as="geometry" />
        </mxCell>
        <mxCell id="q4hPjwmZqmmYiwmyrzm3-22" value="&lt;font style=&quot;font-size: 16px;&quot; face=&quot;Times New Roman&quot;&gt;&lt;b&gt;2.&lt;/b&gt;&lt;/font&gt;" style="text;html=1;align=center;verticalAlign=middle;resizable=0;points=[];autosize=1;strokeColor=none;fillColor=none;fontColor=#000000;" vertex="1" parent="1">
          <mxGeometry x="50" y="70" width="40" height="30" as="geometry" />
        </mxCell>
        <mxCell id="q4hPjwmZqmmYiwmyrzm3-23" value="&lt;font style=&quot;font-size: 16px;&quot; face=&quot;Times New Roman&quot;&gt;&lt;b&gt;3.&lt;/b&gt;&lt;/font&gt;" style="text;html=1;align=center;verticalAlign=middle;resizable=0;points=[];autosize=1;strokeColor=none;fillColor=none;fontColor=#000000;" vertex="1" parent="1">
          <mxGeometry x="157.5" y="70" width="40" height="30" as="geometry" />
        </mxCell>
        <mxCell id="q4hPjwmZqmmYiwmyrzm3-24" value="&lt;font style=&quot;font-size: 16px;&quot; face=&quot;Times New Roman&quot;&gt;&lt;b&gt;4.&lt;/b&gt;&lt;/font&gt;" style="text;html=1;align=center;verticalAlign=middle;resizable=0;points=[];autosize=1;strokeColor=none;fillColor=none;fontColor=#000000;" vertex="1" parent="1">
          <mxGeometry x="270" y="70" width="40" height="30" as="geometry" />
        </mxCell>
        <mxCell id="q4hPjwmZqmmYiwmyrzm3-25" value="&lt;font style=&quot;font-size: 16px;&quot; face=&quot;Times New Roman&quot;&gt;&lt;b&gt;5.&lt;/b&gt;&lt;/font&gt;" style="text;html=1;align=center;verticalAlign=middle;resizable=0;points=[];autosize=1;strokeColor=none;fillColor=none;fontColor=#000000;" vertex="1" parent="1">
          <mxGeometry x="400" y="70" width="40" height="30" as="geometry" />
        </mxCell>
        <mxCell id="q4hPjwmZqmmYiwmyrzm3-26" value="&lt;font style=&quot;font-size: 16px;&quot; face=&quot;Times New Roman&quot;&gt;&lt;b&gt;6.&lt;/b&gt;&lt;/font&gt;" style="text;html=1;align=center;verticalAlign=middle;resizable=0;points=[];autosize=1;strokeColor=none;fillColor=none;fontColor=#000000;" vertex="1" parent="1">
          <mxGeometry x="485" y="70" width="40" height="30" as="geometry" />
        </mxCell>
      </root>
    </mxGraphModel>
  </diagram>
</mxfile>
